<svg width="80" height="80" viewBox="0 0 80 80" fill="none" xmlns="http://www.w3.org/2000/svg">
<path d="M26.6667 10C28.3334 10 35 25 35 26.6667C35 30 30 33.3333 28.3334 36.6667C26.6667 40 30 43.3333 33.3334 46.6667C34.6477 47.981 40 53.3333 43.3334 51.6667C46.6667 50 50 45 53.3334 45C55 45 70 51.6667 70 53.3333C70 60 65 65 60 66.6667C55 68.3333 51.6667 68.3333 45 66.6667C38.3334 65 33.3334 63.3333 25 55C16.6667 46.6667 15 41.6667 13.3334 35C11.6667 28.3333 11.6667 25 13.3334 20C15 15 20 10 26.6667 10Z" fill="#091242" fill-opacity="0.3" stroke="#091242" stroke-width="6.66667" stroke-linecap="round" stroke-linejoin="round"/>
<path d="M46.6667 23.4802C48.8694 24.4912 50.8571 25.8907 52.5414 27.5909C54.1821 29.2468 55.5354 31.188 56.5201 33.3334" stroke="#091242" stroke-width="6.66667" stroke-linecap="round" stroke-linejoin="round"/>
<path d="M69.16 30C67.958 25.3309 65.5237 21.1567 62.224 17.845C58.9013 14.5103 54.7017 12.0502 50 10.8401" stroke="#091242" stroke-width="6.66667" stroke-linecap="round" stroke-linejoin="round"/>
</svg>
